<mxfile host="app.diagrams.net" modified="2022-11-17T09:24:41.075Z" agent="5.0 (Macintosh; Intel Mac OS X 10_15_7) AppleWebKit/537.36 (KHTML, like Gecko) Chrome/107.0.0.0 Safari/537.36" etag="_ZXHJnSw8M7D4RPA6Bep" version="20.5.3" type="github">
  <diagram id="WUZAp-KO4j7UgGiKF_kQ" name="Page-1">
    <mxGraphModel dx="1426" dy="794" grid="1" gridSize="10" guides="1" tooltips="1" connect="1" arrows="1" fold="1" page="1" pageScale="1" pageWidth="850" pageHeight="1100" math="0" shadow="0">
      <root>
        <mxCell id="0" />
        <mxCell id="1" parent="0" />
        <mxCell id="FmR8nwQ28-j4vuU6YW_v-1" value="" style="whiteSpace=wrap;html=1;shape=mxgraph.basic.roundRectCallout;dx=30;dy=15;size=5;boundedLbl=1;strokeWidth=2;" vertex="1" parent="1">
          <mxGeometry x="370" y="380" width="390" height="170" as="geometry" />
        </mxCell>
      </root>
    </mxGraphModel>
  </diagram>
</mxfile>
